Patient4_TMGait_0pt7_02_left_09_GRF.mot
version=1
nRows=78
nColumns=19
inDegrees=no
endheader
time	F1x	F1y	F1z	M1x	M1y	M1z	F2x	F2y	F2z	M2x	M2y	M2z	EC1x	EC1y	EC1z	EC2x	EC2y	EC2z
9.89	14.9503	-5.0963	8.651	-0.11168	-3.2957	-5.101	-39.1517	676.4315	-68.3624	244.6889	80.9595	717.0932	-0.0592	0.0182	-0.0073	-0.0462	0.0165	0.9585
9.9016	9.8205	-2.4892	5.9258	-0.42909	-2.341	-2.3004	-35.3028	686.8874	-67.3856	248.1423	79.857	723.2416	-0.0592	0.0182	-0.0073	-0.0462	0.0165	0.9585
9.9131	5.5761	-0.31578	3.5883	-0.68623	-1.508	0.013652	-31.5417	698.3569	-66.1225	252.2961	78.245	729.7487	-0.0592	0.0182	-0.0073	-0.0462	0.0165	0.9585
9.9247	2.4049	1.3346	1.7826	-0.88138	-0.85308	1.7557	-27.8915	710.3771	-64.6614	257.0238	76.1669	736.2143	-0.0592	0.0182	-0.0073	-0.0462	0.0165	0.9585
9.9363	0.25201	2.4836	0.52803	-1.0163	-0.39777	2.9418	-24.2537	722.5264	-63.0799	262.1557	73.6686	742.2556	-0.0592	0.0182	-0.0073	-0.0462	0.0165	0.9585
9.9479	-1.0539	3.2225	-0.25221	-1.102	-0.11714	3.6765	-20.4285	734.392	-61.4826	267.4839	70.819	747.4775	-0.0592	0.0182	-0.0073	-0.0462	0.0165	0.9585
9.9594	-1.7264	3.6334	-0.66095	-1.1448	0.018889	4.0557	-16.2637	745.55	-59.968	272.7711	67.7009	751.4985	-0.0592	0.0182	-0.0073	-0.0462	0.0165	0.9585
9.971	-1.9898	3.779	-0.80551	-1.1442	0.041538	4.1571	-11.6784	755.5206	-58.6563	277.7494	64.4441	753.9091	-0.0592	0.0182	-0.0073	-0.0462	0.0165	0.9585
9.9826	-2.0109	3.6846	-0.78116	-1.0924	-0.015577	4.0076	-6.6986	763.877	-57.6422	282.1675	61.1909	754.4122	-0.0592	0.0182	-0.0073	-0.0462	0.0165	0.9585
9.9941	-1.9457	3.3336	-0.65765	-0.97049	-0.13485	3.5953	-1.4267	770.2643	-56.9875	285.8152	58.0766	752.8043	-0.0592	0.0182	-0.0073	-0.0462	0.0165	0.9585
10.0057	-1.8714	2.6853	-0.4933	-0.75292	-0.28604	2.8636	3.9928	774.5023	-56.6953	288.5638	55.1899	749.0688	-0.0592	0.0182	-0.0073	-0.0462	0.0165	0.9585
10.0173	-1.8445	1.6665	-0.32052	-0.40625	-0.45211	1.7341	9.4069	776.5924	-56.7204	290.3719	52.5667	743.3595	-0.0592	0.0182	-0.0073	-0.0462	0.0165	0.9585
10.0289	-1.8505	0.21501	-0.16888	0.096037	-0.60075	0.11462	14.665	776.6816	-56.9808	291.2709	50.203	735.9656	-0.0592	0.0182	-0.0073	-0.0462	0.0165	0.9585
10.0404	-1.8544	-1.7017	-0.055179	0.76916	-0.69903	-2.0369	19.6412	774.9836	-57.3874	291.3305	48.0754	727.2214	-0.0592	0.0182	-0.0073	-0.0462	0.0165	0.9585
10.052	-1.7468	-4.0185	-0.023064	1.5892	-0.66915	-4.6645	24.2367	771.7098	-57.8675	290.628	46.1673	717.4398	-0.0592	0.0182	-0.0073	-0.0462	0.0165	0.9585
10.0636	-1.4144	-6.5182	-0.091111	2.4753	-0.44266	-7.5264	28.3521	767.0133	-58.3877	289.2246	44.4906	706.8664	-0.0592	0.0182	-0.0073	-0.0462	0.0165	0.9585
10.0751	-0.67243	-8.7393	-0.32539	3.2546	0.11461	-10.103	31.9018	760.9983	-58.9625	287.1615	43.0962	695.6884	-0.0592	0.0182	-0.0073	-0.0462	0.0165	0.9585
10.0867	0.65637	-9.8768	-0.76204	3.6321	1.1157	-11.4675	34.7874	753.712	-59.6164	284.459	42.0432	684.0266	-0.0592	0.0182	-0.0073	-0.0462	0.0165	0.9585
10.0983	2.7633	-8.7016	-1.4823	3.1563	2.7151	-10.2166	36.9397	745.1978	-60.3922	281.1367	41.3978	671.9661	-0.0592	0.0182	-0.0073	-0.0462	0.0165	0.9585
10.1099	5.7673	-3.5359	-2.501	1.2188	4.9822	-4.4164	38.3178	735.5426	-61.2768	277.2345	41.1677	659.6102	-0.0592	0.0182	-0.0073	-0.0462	0.0165	0.9585
10.1214	9.6651	7.7134	-3.8374	-2.9362	7.9363	8.3418	38.9348	724.8859	-62.2157	272.8203	41.3064	647.0725	-0.0592	0.0182	-0.0073	-0.0462	0.0165	0.9585
10.133	14.1967	27.3252	-5.3964	-10.1258	11.3782	30.7078	38.867	713.4092	-63.0786	267.9793	41.6774	634.4869	-0.0592	0.0182	-0.0073	-0.0462	0.0165	0.9585
10.1446	18.7341	57.3511	-6.9839	-21.0738	14.8434	65.0745	38.2588	701.0954	-63.7121	262.7348	42.0988	621.7585	-0.0592	0.0182	-0.0073	-0.0462	0.0165	0.9585
10.1561	22.0806	98.86	-8.1983	-36.1306	17.425	112.737	37.289	687.6164	-63.9513	256.9981	42.3675	608.5173	-0.0592	0.0182	-0.0073	-0.0462	0.0165	0.9585
10.1677	22.3819	150.9975	-8.4061	-54.941	17.7203	172.8034	36.1741	672.2007	-63.6096	250.5287	42.2496	593.9699	-0.0592	0.0182	-0.0073	-0.0462	0.0165	0.9585
10.1793	17.9083	210.7373	-6.8078	-76.3498	14.2026	241.9105	35.0819	653.7689	-62.4941	242.9779	41.5188	577.0736	-0.0592	0.0182	-0.0073	-0.0462	0.0165	0.9585
10.1909	8.8336	273.5368	-2.5879	-98.6457	6.0024	314.835	34.1812	631.1162	-60.4196	233.9543	39.9585	556.6588	-0.0592	0.0182	-0.0073	-0.0462	0.0165	0.9585
10.2024	-2.9891	333.5215	4.6964	-119.6977	-6.6845	384.578	33.515	603.0636	-57.3119	223.064	37.4848	531.5961	-0.0592	0.0182	-0.0073	-0.0462	0.0165	0.9585
10.214	-15.3036	385.5596	14.3804	-137.7485	-22.2075	444.7685	33.061	568.6088	-53.2518	209.9648	34.172	500.9091	-0.0592	0.0182	-0.0073	-0.0462	0.0165	0.9585
10.2256	-26.5015	428.6745	24.8724	-152.5479	-38.1234	493.9178	32.6088	527.3172	-48.4687	194.4918	30.2747	464.2003	-0.0592	0.0182	-0.0073	-0.0462	0.0165	0.9585
10.2371	-35.9056	465.4027	34.7506	-165.1043	-52.5629	534.7836	31.8726	479.4429	-43.2577	176.7163	26.13	421.6965	-0.0592	0.0182	-0.0073	-0.0462	0.0165	0.9585
10.2487	-43.2833	499.3465	43.1604	-176.7719	-64.4857	571.4932	30.5229	426.0098	-37.9375	156.9771	22.1047	374.356	-0.0592	0.0182	-0.0073	-0.0462	0.0165	0.9585
10.2603	-48.4615	533.0361	49.5524	-188.4981	-73.2524	606.9781	28.2887	368.6525	-32.709	135.8449	18.4524	323.6599	-0.0592	0.0182	-0.0073	-0.0462	0.0165	0.9585
10.2719	-51.3017	567.2956	53.964	-200.5755	-78.8893	642.1907	24.9735	309.5614	-27.6935	114.0975	15.3383	271.5915	-0.0592	0.0182	-0.0073	-0.0462	0.0165	0.9585
10.2834	-51.7791	601.6935	56.8408	-212.8064	-81.9201	676.67	20.6074	251.2996	-23.0009	92.6561	12.8536	220.4203	-0.0592	0.0182	-0.0073	-0.0462	0.0165	0.9585
10.295	-50.0619	635.1719	58.8062	-224.7469	-83.1393	709.349	15.4562	196.5279	-18.734	72.4842	10.9981	172.4774	-0.0592	0.0182	-0.0073	-0.0462	0.0165	0.9585
10.3066	-46.6059	666.6293	60.5211	-235.9276	-83.4445	739.1613	10.0967	147.588	-14.9898	54.4378	9.6576	129.7484	-0.0592	0.0182	-0.0073	-0.0462	0.0165	0.9585
10.3181	-41.9974	695.0044	62.2984	-245.921	-83.4082	765.1384	5.2034	106.0321	-11.7843	39.0955	8.6015	93.5209	-0.0592	0.0182	-0.0073	-0.0462	0.0165	0.9585
10.3297	-36.8912	719.3601	64.3881	-254.3608	-83.5157	786.4709	1.3318	72.3808	-9.0771	26.665	7.5994	64.1741	-0.0592	0.0182	-0.0073	-0.0462	0.0165	0.9585
10.3413	-31.8299	739.1148	66.6388	-261.0393	-83.7932	802.6689	-1.302	46.3599	-6.7766	17.0558	6.5027	41.4362	-0.0592	0.0182	-0.0073	-0.0462	0.0165	0.9585
10.3529	-27.1405	754.1629	68.787	-265.9355	-84.0617	813.7772	-2.7851	27.1631	-4.8225	9.979	5.2967	24.5947	-0.0592	0.0182	-0.0073	-0.0462	0.0165	0.9585
10.3644	-22.9646	764.7724	70.419	-269.1708	-83.9371	820.1751	-3.3302	13.7773	-3.181	5.0578	4.0339	12.7937	-0.0592	0.0182	-0.0073	-0.0462	0.0165	0.9585
10.376	-19.379	771.2251	71.2977	-270.8686	-83.1891	822.2554	-3.1963	5.1014	-1.8483	1.8831	2.8043	5.1064	-0.0592	0.0182	-0.0073	-0.0462	0.0165	0.9585
10.3876	-16.3685	773.7972	71.3701	-271.1344	-81.7577	820.3759	-2.6629	0.10474	-0.85135	0.066943	1.7323	0.6589	-0.0592	0.0182	-0.0073	-0.0462	0.0165	0.9585
10.3991	-13.9135	772.8008	70.7952	-270.0703	-79.7978	814.9242	-1.9861	-2.2137	-0.18396	-0.7639	0.90377	-1.4211	-0.0592	0.0182	-0.0073	-0.0462	0.0165	0.9585
10.4107	-11.9455	768.7227	69.8649	-267.8267	-77.5889	806.4627	-1.3239	-2.7737	0.19995	-0.95079	0.33573	-1.9417	-0.0592	0.0182	-0.0073	-0.0462	0.0165	0.9585
10.4223	-10.402	762.3214	68.807	-264.6495	-75.3588	795.8111	-0.75915	-2.3027	0.38713	-0.76345	-0.021349	-1.5359	-0.0592	0.0182	-0.0073	-0.0462	0.0165	0.9585
10.4339	-9.2338	754.533	67.8171	-260.8588	-73.3085	783.9534	-0.32962	-1.3444	0.42783	-0.40139	-0.20176	-0.68294	-0.0592	0.0182	-0.0073	-0.0462	0.0165	0.9585
10.4454	-8.3562	746.4254	66.9595	-256.8307	-71.4955	771.9813	-0.035712	-0.23506	0.39543	0.009374	-0.27137	0.32467	-0.0592	0.0182	-0.0073	-0.0462	0.0165	0.9585
10.457	-7.6786	738.9071	66.3098	-252.901	-69.9717	760.7954	0.14533	0.80324	0.32383	0.38777	-0.26813	1.276	-0.0592	0.0182	-0.0073	-0.0462	0.0165	0.9585
10.4686	-7.1074	732.6437	65.8861	-249.3359	-68.7254	751.0013	0.23818	1.6809	0.25572	0.70119	-0.23896	2.0924	-0.0592	0.0182	-0.0073	-0.0462	0.0165	0.9585
10.4801	-6.5344	727.9673	65.6946	-246.2968	-67.7259	742.8562	0.27867	2.36	0.20383	0.93817	-0.20528	2.7386	-0.0592	0.0182	-0.0073	-0.0462	0.0165	0.9585
10.4917	-5.8753	724.9297	65.6731	-243.8511	-66.8853	736.3269	0.27883	2.8573	0.17489	1.1085	-0.18038	3.239	-0.0592	0.0182	-0.0073	-0.0462	0.0165	0.9585
10.5033	-5.0565	723.3707	65.7264	-241.9886	-66.0844	731.1518	0.26821	3.2019	0.15956	1.2266	-0.16511	3.6055	-0.0592	0.0182	-0.0073	-0.0462	0.0165	0.9585
10.5149	-4.02	722.9384	65.7527	-240.6295	-65.2047	726.9136	0.24451	3.428	0.15579	1.3074	-0.15561	3.8647	-0.0592	0.0182	-0.0073	-0.0462	0.0165	0.9585
10.5264	-2.7572	723.1508	65.663	-239.6416	-64.1508	723.0898	0.22526	3.5616	0.15154	1.3602	-0.14	4.0323	-0.0592	0.0182	-0.0073	-0.0462	0.0165	0.9585
10.538	-1.2774	723.4691	65.4151	-238.8608	-62.8812	719.1455	0.19747	3.6193	0.14308	1.3893	-0.11057	4.1238	-0.0592	0.0182	-0.0073	-0.0462	0.0165	0.9585
10.5496	0.42028	723.3497	64.969	-238.1117	-61.3572	714.5374	0.16759	3.5854	0.11817	1.3878	-0.058536	4.1224	-0.0592	0.0182	-0.0073	-0.0462	0.0165	0.9585
10.5611	2.352	722.3669	64.3183	-237.2487	-59.5765	708.8471	0.12218	3.4263	0.062113	1.3389	0.030436	3.9797	-0.0592	0.0182	-0.0073	-0.0462	0.0165	0.9585
10.5727	4.584	720.2741	63.4644	-236.1806	-57.5245	701.8462	0.068821	3.0753	-0.029896	1.2136	0.15856	3.6009	-0.0592	0.0182	-0.0073	-0.0462	0.0165	0.9585
10.5843	7.2179	717.0999	62.4373	-234.8966	-55.2002	693.5692	0.0038688	2.4457	-0.16364	0.97253	0.33143	2.8904	-0.0592	0.0182	-0.0073	-0.0462	0.0165	0.9585
10.5959	10.3631	713.1142	61.3012	-233.458	-52.6259	684.2772	-0.050058	1.4278	-0.3404	0.57036	0.54525	1.7164	-0.0592	0.0182	-0.0073	-0.0462	0.0165	0.9585
10.6074	14.153	708.851	60.1442	-232.0037	-49.8412	674.4959	-0.080247	-0.071523	-0.54822	-0.031928	0.78427	-0.037081	-0.0592	0.0182	-0.0073	-0.0462	0.0165	0.9585
10.619	18.6871	705.0412	59.1217	-230.733	-46.9551	664.9381	-0.061941	-2.1001	-0.76657	-0.85429	1.0142	-2.4285	-0.0592	0.0182	-0.0073	-0.0462	0.0165	0.9585
10.6306	24.0261	702.5593	58.4059	-229.8925	-44.0979	656.4491	0.0322	-4.5957	-0.94519	-1.8724	1.1641	-5.3779	-0.0592	0.0182	-0.0073	-0.0462	0.0165	0.9585
10.6421	30.1692	702.313	58.2147	-229.7416	-41.4566	649.9222	0.24963	-7.3568	-1.0165	-2.9986	1.1312	-8.6595	-0.0592	0.0182	-0.0073	-0.0462	0.0165	0.9585
10.6537	37.0229	705.0664	58.7058	-230.5028	-39.1864	646.1183	0.63072	-9.8989	-0.87325	-4.0301	0.76918	-11.7035	-0.0592	0.0182	-0.0073	-0.0462	0.0165	0.9585
10.6653	44.3906	711.2461	59.9903	-232.2987	-37.4357	645.5017	1.2265	-11.3961	-0.37551	-4.6186	-0.10733	-13.5411	-0.0592	0.0182	-0.0073	-0.0462	0.0165	0.9585
10.6769	51.9655	720.7097	62.0563	-235.0808	-36.2806	648.0387	2.0531	-10.5438	0.64278	-4.2235	-1.6959	-12.6277	-0.0592	0.0182	-0.0073	-0.0462	0.0165	0.9585
10.6884	59.35	732.576	64.7789	-238.5673	-35.735	653.0258	3.1038	-5.5353	2.3686	-2.099	-4.1959	-6.8193	-0.0592	0.0182	-0.0073	-0.0462	0.0165	0.9585
10.7	66.115	745.2009	67.9164	-242.235	-35.7271	659.0838	4.2813	5.9111	4.9535	2.6885	-7.7226	6.6104	-0.0592	0.0182	-0.0073	-0.0462	0.0165	0.9585
10.7116	71.8958	756.364	71.1035	-245.3819	-36.0697	664.3208	5.3946	26.3441	8.4712	11.1747	-12.2519	30.6999	-0.0592	0.0182	-0.0073	-0.0462	0.0165	0.9585
10.7231	76.4219	763.624	73.9116	-247.2411	-36.5037	666.6562	6.0852	58.1515	12.8027	24.3141	-17.4673	68.3142	-0.0592	0.0182	-0.0073	-0.0462	0.0165	0.9585
10.7347	79.5607	764.6566	75.8386	-247.0935	-36.6764	664.1193	5.8223	102.7883	17.5292	42.6606	-22.6222	121.2174	-0.0592	0.0182	-0.0073	-0.0462	0.0165	0.9585
10.7463	81.2393	757.5442	76.4036	-244.3606	-36.2364	655.1067	3.7864	159.6723	21.7612	65.909	-26.3227	188.7751	-0.0592	0.0182	-0.0073	-0.0462	0.0165	0.9585
10.7579	81.4551	740.8927	75.1753	-238.6369	-34.8518	638.4426	-1.1521	224.8785	24.2252	92.3633	-26.618	266.3921	-0.0592	0.0182	-0.0073	-0.0462	0.0165	0.9585
10.7694	80.2238	713.7344	71.9187	-229.6502	-32.3417	613.2982	-9.4247	290.3636	23.3151	118.6569	-21.5228	344.5662	-0.0592	0.0182	-0.0073	-0.0462	0.0165	0.9585
10.781	77.5954	675.5744	66.6906	-217.2638	-28.7593	579.2011	-19.5422	346.852	17.8578	141.0126	-10.5014	412.1511	-0.0592	0.0182	-0.0073	-0.0462	0.0165	0.9585
